<?xml version="1.0" encoding="utf-8"?>
<!-- Generator: Adobe Illustrator 17.0.0, SVG Export Plug-In . SVG Version: 6.00 Build 0)  -->
<!DOCTYPE svg PUBLIC "-//W3C//DTD SVG 1.1//EN" "http://www.w3.org/Graphics/SVG/1.1/DTD/svg11.dtd">
<svg version="1.1" id="Layer_1" xmlns="http://www.w3.org/2000/svg" xmlns:xlink="http://www.w3.org/1999/xlink" x="0px" y="0px"
	 width="31.746px" height="18.617px" viewBox="0.139 3.6 31.746 18.617" enable-background="new 0.139 3.6 31.746 18.617"
	 xml:space="preserve">
<polygon fill="#FFFFFF" points="21.185,21.898 31.58,3.887 0.756,9.81 9.459,15.088 10.789,19.883 13.771,17.587 "/>
<path fill="#000F26" d="M31.884,3.885c-0.001-0.007,0.001-0.014,0-0.02c0,0,0-0.001,0-0.001c-0.001-0.004-0.004-0.007-0.005-0.011
	c-0.004-0.016-0.011-0.03-0.017-0.045c-0.004-0.011-0.004-0.022-0.009-0.032c-0.003-0.006-0.008-0.009-0.012-0.014
	c-0.003-0.006-0.003-0.012-0.007-0.017c0,0-0.001,0-0.001-0.001c-0.002-0.003-0.005-0.006-0.007-0.009
	c-0.009-0.013-0.021-0.022-0.032-0.033c-0.013-0.013-0.024-0.027-0.039-0.037c-0.005-0.004-0.008-0.01-0.013-0.013
	c-0.004-0.003-0.008-0.003-0.012-0.005c-0.003-0.002-0.005-0.005-0.008-0.007c-0.01-0.006-0.021-0.006-0.031-0.011
	c-0.016-0.007-0.031-0.015-0.048-0.019c-0.006-0.002-0.012-0.006-0.018-0.007c-0.005-0.001-0.009,0-0.014,0
	c-0.015-0.003-0.03-0.002-0.045-0.002c-0.016-0.001-0.032-0.001-0.048,0.001c-0.007,0.001-0.014-0.001-0.021,0c0,0-0.001,0-0.001,0
	L0.401,9.579C0.398,9.58,0.395,9.583,0.391,9.584C0.367,9.589,0.347,9.601,0.325,9.611C0.308,9.619,0.289,9.625,0.274,9.636
	C0.258,9.647,0.247,9.663,0.233,9.676C0.216,9.694,0.199,9.709,0.186,9.73C0.184,9.733,0.181,9.735,0.178,9.738
	C0.17,9.752,0.169,9.768,0.163,9.783C0.154,9.805,0.145,9.825,0.141,9.849C0.137,9.873,0.139,9.896,0.141,9.919
	C0.141,9.935,0.137,9.95,0.14,9.966C0.141,9.97,0.144,9.974,0.145,9.978c0.004,0.016,0.011,0.03,0.017,0.046
	c0.009,0.023,0.018,0.046,0.032,0.066c0.009,0.013,0.019,0.023,0.03,0.034c0.018,0.019,0.036,0.037,0.058,0.051
	c0.007,0.005,0.01,0.011,0.017,0.015l8.932,5.169l1.274,4.556c0,0,0,0,0,0l0.002,0.006c0.002,0.007,0.006,0.013,0.009,0.019
	c0.005,0.015,0.013,0.028,0.02,0.042c0.008,0.015,0.014,0.031,0.024,0.045c0.001,0.002,0.002,0.005,0.003,0.007
	c0.004,0.004,0.01,0.006,0.013,0.011c0.01,0.011,0.019,0.022,0.031,0.031c0.018,0.016,0.038,0.03,0.058,0.041
	c0.009,0.005,0.016,0.011,0.024,0.015c0.003,0.001,0.005,0.005,0.008,0.006c0.004,0.001,0.007,0.001,0.011,0.002
	c0.037,0.014,0.076,0.023,0.117,0.023c0,0,0,0,0,0l0,0c0.001,0,0.001,0,0.002,0c0.029,0,0.058-0.004,0.087-0.012
	c0.001,0,0.001-0.001,0.002-0.001c0.002-0.001,0.005-0.002,0.008-0.003c0.01-0.003,0.019-0.009,0.029-0.013
	c0.022-0.01,0.043-0.02,0.063-0.034c0.003-0.002,0.007-0.003,0.01-0.005l0.004-0.004c0,0,0.001,0,0.001-0.001l2.741-2.102
	l7.261,4.185c0.025,0.014,0.051,0.025,0.077,0.032c0.001,0.001,0.003,0.001,0.004,0.002c0.028,0.007,0.056,0.011,0.084,0.011
	c0.114,0,0.225-0.059,0.286-0.166l0,0l10.361-17.96c0.006-0.01,0.006-0.021,0.011-0.032c0.007-0.016,0.015-0.031,0.019-0.048
	C31.877,4.005,31.881,4,31.882,3.993c0.001-0.005,0-0.01,0-0.014c0.003-0.015,0.002-0.03,0.002-0.045
	C31.885,3.918,31.886,3.902,31.884,3.885z M13.912,17.305C13.912,17.305,13.912,17.305,13.912,17.305l-1.134-0.659L30.579,4.963
	l-9.502,16.472L13.912,17.305z M9.904,15.312l16.469-8.378l-14.404,9.453c-0.003,0.002-0.004,0.005-0.007,0.007
	c-0.009,0.006-0.016,0.014-0.024,0.02c-0.014,0.012-0.026,0.026-0.038,0.041c-0.01,0.012-0.021,0.022-0.029,0.034
	c-0.002,0.003-0.005,0.004-0.007,0.008c-0.004,0.007-0.004,0.014-0.007,0.02c-0.004,0.007-0.01,0.012-0.013,0.018l-0.958,2.292
	L9.904,15.312z M1.396,10.062l27.93-5.37L9.524,14.765L1.396,10.062z"/>
</svg>
