<?xml version="1.0" encoding="utf-8"?>
<!-- Generator: Adobe Illustrator 17.0.0, SVG Export Plug-In . SVG Version: 6.00 Build 0)  -->
<!DOCTYPE svg PUBLIC "-//W3C//DTD SVG 1.1//EN" "http://www.w3.org/Graphics/SVG/1.1/DTD/svg11.dtd">
<svg version="1.1" id="Layer_1" xmlns="http://www.w3.org/2000/svg" xmlns:xlink="http://www.w3.org/1999/xlink" x="0px" y="0px"
	 width="750.676px" height="201.724px" viewBox="0 0 750.676 201.724" enable-background="new 0 0 750.676 201.724"
	 xml:space="preserve">
<g>
	<path fill="#000F26" d="M263.456,74.517l-52.691-52.691c-29.101-29.101-76.282-29.101-105.382,0L52.691,74.517L0,127.208
		c29.101,29.101,76.282,29.101,105.382,0l52.691-52.691l52.691,52.691c29.101,29.101,76.282,29.101,105.382,0L263.456,74.517z"/>
</g>
<g>
	<path fill="#000F26" d="M645.294,21.825l-52.691,52.691l-46.358-46.358L493.554,80.85l46.358,46.358l-52.691,52.691
		c29.101,29.101,76.282,29.101,105.382,0l52.691-52.691l52.691-52.691l52.691-52.691C721.576-7.275,674.395-7.275,645.294,21.825z"
		/>
</g>
<g>
	<path fill="#000F26" d="M434.529,21.825l-52.691,52.691l-52.691-52.691c-29.101-29.101-76.282-29.101-105.382,0l52.691,52.691
		l52.691,52.691c29.101,29.101,76.282,29.101,105.382,0l52.691-52.691l52.691-52.691C510.811-7.275,463.63-7.275,434.529,21.825z"/>
</g>
</svg>
