<?xml version="1.0" encoding="utf-8"?>
<!-- Generator: Adobe Illustrator 17.0.0, SVG Export Plug-In . SVG Version: 6.00 Build 0)  -->
<!DOCTYPE svg PUBLIC "-//W3C//DTD SVG 1.1//EN" "http://www.w3.org/Graphics/SVG/1.1/DTD/svg11.dtd">
<svg version="1.1"
	 id="Layer_1" xmlns:rdf="http://www.w3.org/1999/02/22-rdf-syntax-ns#" xmlns:inkscape="http://www.inkscape.org/namespaces/inkscape" xmlns:dc="http://purl.org/dc/elements/1.1/" xmlns:cc="http://creativecommons.org/ns#" xmlns:svg="http://www.w3.org/2000/svg" xmlns:sodipodi="http://sodipodi.sourceforge.net/DTD/sodipodi-0.dtd"
	 xmlns="http://www.w3.org/2000/svg" xmlns:xlink="http://www.w3.org/1999/xlink" x="0px" y="0px" width="800px" height="1280px"
	 viewBox="0 0 800 1280" enable-background="new 0 0 800 1280" xml:space="preserve">
<path fill="#FF8811" d="M799.093,502.48c0.533-24.44-22.08-58.373-76.213-103.76c4.787-71.12-3.88-111.147-21.693-127.573
	c-13.68-20.093-51.613-34.04-121.653-38.4c-37.227-60.4-67.387-87.6-91.293-90.253c-22.693-8.067-61.427,3.307-120.613,41.64
	c-65.067-26.627-105.187-30.6-126.053-18.44c-23.027,7.04-47.773,39.4-73.493,105.76c-68.027,17.333-102.773,38.093-112.64,60.4
	c-14.56,19.44-15.88,60.413,1.68,129.48C12.107,516.027-4,553.587,0.92,577.52c-0.533,24.44,22.093,58.373,76.213,103.747
	c-4.8,71.16,3.893,111.187,21.707,127.587c13.707,20.093,51.627,34.027,121.627,38.387c37.24,60.413,67.413,87.613,91.307,90.253
	c22.707,8.053,61.427-3.32,120.6-41.64c65.067,26.627,105.2,30.6,126.053,18.453c23.04-7.04,47.787-39.4,73.507-105.76
	c68.04-17.347,102.8-38.107,112.64-60.413c14.547-19.467,15.853-60.427-1.693-129.48C787.88,563.973,804,526.413,799.093,502.48z
	 M400.004,754.422c0,0-219.994-150.185-219.994-248.725c0-58.8,45.077-130.139,119.905-130.139
	c74.881,0,100.088,66.434,100.088,66.434s25.238-66.434,100.088-66.434s119.905,71.34,119.905,130.157
	C619.998,604.272,400.004,754.422,400.004,754.422z"/>
</svg>
