<?xml version="1.0" encoding="utf-8"?>
<!-- Generator: Adobe Illustrator 17.0.0, SVG Export Plug-In . SVG Version: 6.00 Build 0)  -->
<!DOCTYPE svg PUBLIC "-//W3C//DTD SVG 1.1//EN" "http://www.w3.org/Graphics/SVG/1.1/DTD/svg11.dtd">
<svg version="1.1" id="Layer_1" xmlns="http://www.w3.org/2000/svg" xmlns:xlink="http://www.w3.org/1999/xlink" x="0px" y="0px"
	 width="800px" height="1280px" viewBox="0 0 800 1280" enable-background="new 0 0 800 1280" xml:space="preserve">
<rect x="97.499" y="470.667" transform="matrix(-0.7071 0.7071 -0.7071 -0.7071 1049.8066 634.4889)" fill="#FF8811" width="591.994" height="127.999"/>
<polygon fill="#FF8811" points="88.8,795.2 133.6,840 207.2,812 116.8,721.6 "/>
<polygon fill="#FF8811" points="60,868.8 105.6,856.8 71.2,823.2 "/>
<rect x="573.036" y="275.031" transform="matrix(-0.7071 -0.7071 0.7071 -0.7071 881.6982 947.2729)" fill="#FF8811" width="127.999" height="32"/>
<path fill="#FF8811" d="M750.4,268.8c18.4-18.4,18.4-48.8,0-68L728,178.4c-18.4-18.4-48.8-18.4-68,0L625.6,212l90.4,90.4
	L750.4,268.8z"/>
<path fill="#FF8811" d="M125.6,345.6l160.8,160.8l90.4-90.4L216,255.2c-0.8-21.6-8.8-43.2-25.6-59.2c-34.4-34.4-90.4-34.4-124.8,0
	s-34.4,90.4,0,124.8C82.4,336,104,344.8,125.6,345.6z M88.8,217.6c21.6-21.6,57.6-21.6,79.2,0s21.6,57.6,0,79.2
	c-21.6,21.6-57.6,21.6-79.2,0C66.4,275.2,66.4,240,88.8,217.6z"/>
<path fill="#FF8811" d="M744.8,710.4c-28.8-28.8-68-39.2-104.8-32L512.8,552l-90.4,90.4l126.4,126.4c-7.2,36.8,3.2,76.8,32,104.8
	c28.8,28.8,68,39.2,104.8,32l-71.2-71.2l10.4-44l0,0l6.4-29.6l29.6-6.4l0,0l44-10.4l71.2,71.2C784,778.4,772.8,738.4,744.8,710.4z"
	/>
</svg>
